<?xml version="1.0" encoding="UTF-8"?>
<svg width="24px" height="24px" viewBox="0 0 24 24" version="1.1" xmlns="http://www.w3.org/2000/svg">
    <g stroke="none" stroke-width="1" fill="none" fill-rule="evenodd">
        <g transform="translate(2.000000, 2.000000)" fill="#666666" fill-rule="nonzero">
            <path d="M18,16 C16.9,16 16,16.9 16,18 C16,19.1 16.9,20 18,20 C19.1,20 20,19.1 20,18 C20,16.9 19.1,16 18,16 Z M2,0 L0,0 L0,2 L2,2 L4.6,9.6 L3.5,11.3 C3.2,11.7 3,12.2 3,12.8 C3,14.1 4.1,15.2 5.4,15.2 L20,15.2 L20,13.2 L5.4,13.2 C5.2,13.2 5,13 5,12.8 L5,12.7 L5.7,11.5 L16.1,11.5 C17,11.5 17.8,11 18.2,10.2 L22.7,3.2 C22.9,2.9 23,2.5 23,2.2 C23,1.5 22.3,1 21.6,1 L4.2,1 L3.3,0 L2,0 Z M6,16 C4.9,16 4,16.9 4,18 C4,19.1 4.9,20 6,20 C7.1,20 8,19.1 8,18 C8,16.9 7.1,16 6,16 Z"/>
        </g>
    </g>
</svg>
